<svg xmlns="http://www.w3.org/2000/svg" viewBox="0 0 900 1100"><rect width="900" height="1100" fill="#181614"/><circle cx="289" cy="242" r="190" fill="#d49b73" opacity=".16"/><ellipse cx="450" cy="822" rx="296" ry="66" fill="#070706" opacity=".52"/><path d="M213 704c45-151 253-197 413-86 96 67 62 189-100 225-200 44-370-32-313-139Z" fill="#c87955"/><path d="M276 687c81-58 226-70 317-12 44 28 16 80-82 93-118 16-276-31-235-81Z" fill="#f0c49b" opacity=".4"/><circle cx="590" cy="616" r="78" fill="#31241f"/><circle cx="590" cy="616" r="39" fill="#11100f"/><path d="M255 739c105 55 249 69 372 4" fill="none" stroke="#9f5237" stroke-width="14" opacity=".44"/><text x="70" y="120" fill="#f7efe4" font-family="Georgia,serif" font-size="58">Alien Pipe</text></svg>
