<svg xmlns="http://www.w3.org/2000/svg" viewBox="0 0 900 1100"><rect width="900" height="1100" fill="#191817"/><circle cx="630" cy="245" r="210" fill="#d49b73" opacity=".14"/><ellipse cx="442" cy="826" rx="330" ry="76" fill="#070706" opacity=".52"/><path d="M137 678C230 517 460 448 673 566c152 84 128 251-83 292-232 46-551-10-453-180Z" fill="#79614f"/><path d="M248 660c113-86 286-111 413-38 67 39 35 101-97 124-146 25-389-32-316-86Z" fill="#b88768" opacity=".55"/><circle cx="642" cy="571" r="94" fill="#2d2926"/><circle cx="642" cy="571" r="47" fill="#100f0e"/><path d="M182 724c134 69 318 90 493 22" fill="none" stroke="#c87955" stroke-width="16" opacity=".42"/><text x="70" y="120" fill="#f7efe4" font-family="Georgia,serif" font-size="58">Maze Pipe</text></svg>
