<svg xmlns="http://www.w3.org/2000/svg" viewBox="0 0 900 1100"><rect width="900" height="1100" fill="#181615"/><circle cx="260" cy="265" r="205" fill="#9f5237" opacity=".2"/><ellipse cx="450" cy="810" rx="320" ry="74" fill="#090807" opacity=".5"/><path d="M166 704c71-177 328-229 521-91 114 81 67 218-128 248-232 36-461-30-393-157Z" fill="#d09266"/><path d="M244 682c96-75 286-96 404-21 55 35 14 93-111 107-153 17-344-35-293-86Z" fill="#f0c49b" opacity=".43"/><circle cx="624" cy="595" r="92" fill="#3a2821"/><circle cx="624" cy="595" r="45" fill="#12100f"/><path d="M218 733c121 66 308 89 455 11" fill="none" stroke="#9f5237" stroke-width="16" opacity=".42"/><text x="70" y="120" fill="#f7efe4" font-family="Georgia,serif" font-size="58">Skull Pipe</text></svg>
