<svg xmlns="http://www.w3.org/2000/svg" viewBox="0 0 900 1100"><rect width="900" height="1100" fill="#171514"/><circle cx="616" cy="252" r="215" fill="#c87955" opacity=".14"/><ellipse cx="450" cy="826" rx="344" ry="78" fill="#070706" opacity=".54"/><path d="M117 691c116-183 455-247 652-73 113 100 38 237-194 255-275 22-550-59-458-182Z" fill="#80654d"/><path d="M224 671c129-79 321-96 447-11 57 39 3 91-135 103-161 14-381-31-312-92Z" fill="#c99a72" opacity=".45"/><circle cx="674" cy="615" r="95" fill="#2d251f"/><circle cx="674" cy="615" r="47" fill="#0f0e0d"/><path d="M173 733c163 76 369 86 548-1" fill="none" stroke="#c87955" stroke-width="15" opacity=".39"/><text x="70" y="120" fill="#f7efe4" font-family="Georgia,serif" font-size="58">Mini Bulbous Pipe</text></svg>
