<svg xmlns="http://www.w3.org/2000/svg" viewBox="0 0 900 1100"><rect width="900" height="1100" fill="#141312"/><circle cx="638" cy="237" r="220" fill="#c87955" opacity=".16"/><ellipse cx="450" cy="824" rx="332" ry="80" fill="#050505" opacity=".56"/><path d="M152 674c89-188 397-222 582-68 116 96 52 236-164 258-251 26-493-57-418-190Z" fill="#4a4440"/><path d="M237 656c104-78 313-91 414-12 48 38 1 92-118 103-151 14-352-34-296-91Z" fill="#8d7868" opacity=".5"/><circle cx="662" cy="609" r="92" fill="#26211f"/><circle cx="662" cy="609" r="46" fill="#0d0c0b"/><path d="M205 729c147 77 342 85 503-1" fill="none" stroke="#c87955" stroke-width="15" opacity=".42"/><text x="70" y="120" fill="#f7efe4" font-family="Georgia,serif" font-size="58">Diamond Pipe</text></svg>
