<svg xmlns="http://www.w3.org/2000/svg" viewBox="0 0 900 1100"><rect width="900" height="1100" fill="#141312"/><circle cx="285" cy="252" r="205" fill="#d49b73" opacity=".14"/><ellipse cx="450" cy="826" rx="320" ry="78" fill="#050505" opacity=".56"/><path d="M183 683c84-182 360-228 543-83 116 92 62 234-149 261-254 32-469-58-394-178Z" fill="#33302d"/><path d="M263 663c99-81 295-93 404-19 53 36 7 91-118 104-149 15-348-30-286-85Z" fill="#766456" opacity=".52"/><circle cx="648" cy="597" r="104" fill="#c87955"/><circle cx="648" cy="597" r="58" fill="#2a211d"/><circle cx="648" cy="597" r="29" fill="#0e0d0c"/><path d="M226 730c132 72 329 84 480 0" fill="none" stroke="#c87955" stroke-width="15" opacity=".41"/><text x="70" y="120" fill="#f7efe4" font-family="Georgia,serif" font-size="58">Mini Diamond Pipe</text></svg>
